<svg xmlns="http://www.w3.org/2000/svg" xmlns:xlink="http://www.w3.org/1999/xlink" width="400" height="400px" viewBox="0 0 48 48" version="1.1">
<g id="surface1">
<path style=" fill:#009688;" d="M 6 6 L 42 6 L 42 28 L 6 28 Z "></path>
<path style=" fill:#00796B;" d="M 39 10 L 39 28 L 9 28 L 9 10 L 40 10 M 42 8 L 6 8 L 6 28 L 42 28 Z "></path>
<path style=" fill:#DD7C12;" d="M 40 8 L 40 27 L 8 27 L 8 8 L 40 8 M 42 6 L 6 6 L 6 28 L 42 28 Z "></path>
<path style=" fill:#773D04;" d="M 44 31 L 44 29 C 44 27.894531 43.105469 27 42 27 L 7 27 C 5.894531 27 5 27.894531 5 29 L 5 31 Z "></path>
<path style=" fill:#FFFFFF;" d="M 35 27 L 28 27 L 28 25 L 35 25 L 36 26 Z "></path>
<path style=" fill:#FFB74D;" d="M 10 15 C 7.792969 15 6 13.203125 6 11 C 6 8.792969 7.792969 7 10 7 C 12.207031 7 14 8.792969 14 11 C 14 13.203125 12.207031 15 10 15 "></path>
<path style=" fill:#FFB74D;" d="M 7 34 L 4 32 L 4 28 L 7 28 Z "></path>
<path style=" fill:#FFB74D;" d="M 28.023438 17 L 28.222656 20.601563 L 25.023438 23 L 23.222656 20.601563 Z "></path>
<path style=" fill:#455A64;" d="M 7.214844 42 L 14.71875 42 L 15.511719 25.59375 L 15.511719 23 L 20.855469 26.425781 C 21.074219 26.511719 21.976563 26.550781 22.453125 26.1875 L 27.222656 22.210938 L 24.757813 18.871094 L 21.191406 21.597656 C 21.191406 21.597656 15.800781 17.355469 14.8125 16.765625 C 14.785156 16.75 13.15625 16 11.078125 16 C 11.0625 16 11.050781 16.003906 11.035156 16.003906 C 11.023438 16.003906 11.011719 16 11 16 C 6 16 4 18 4 22 L 4 30 L 6.625 31.75 Z "></path>
<path style=" fill:#FFA726;" d="M 13 34.5 C 13 35.878906 11.882813 37 10.5 37 C 9.117188 37 8 35.878906 8 34.5 C 8 33.117188 9.117188 32 10.5 32 C 11.882813 32 13 33.117188 13 34.5 "></path>
<path style=" fill:#FFA726;" d="M 22 34.5 C 22 35.878906 20.882813 37 19.5 37 C 18.117188 37 17 35.878906 17 34.5 C 17 33.117188 18.117188 32 19.5 32 C 20.882813 32 22 33.117188 22 34.5 "></path>
<path style=" fill:#FFA726;" d="M 31 34.5 C 31 35.878906 29.882813 37 28.5 37 C 27.117188 37 26 35.878906 26 34.5 C 26 33.117188 27.117188 32 28.5 32 C 29.882813 32 31 33.117188 31 34.5 "></path>
<path style=" fill:#FFA726;" d="M 40 34.5 C 40 35.878906 38.878906 37 37.5 37 C 36.121094 37 35 35.878906 35 34.5 C 35 33.117188 36.121094 32 37.5 32 C 38.878906 32 40 33.117188 40 34.5 "></path>
<path style=" fill:#607D8B;" d="M 15 41 C 15 41 13.753906 38 10.5 38 C 7.246094 38 6 41 6 41 L 6 42 L 15 42 Z "></path>
<path style=" fill:#607D8B;" d="M 24 41 C 24 41 22.753906 38 19.5 38 C 16.246094 38 15 41 15 41 L 15 42 L 24 42 Z "></path>
<path style=" fill:#607D8B;" d="M 33 41 C 33 41 31.753906 38 28.5 38 C 25.246094 38 24 41 24 41 L 24 42 L 33 42 Z "></path>
<path style=" fill:#607D8B;" d="M 42 41 C 42 41 40.753906 38 37.5 38 C 34.246094 38 33 41 33 41 L 33 42 L 42 42 Z "></path>
</g>
</svg>