<svg xmlns="http://www.w3.org/2000/svg" xmlns:xlink="http://www.w3.org/1999/xlink" viewBox="0 0 48 48" version="1.1" width="400px" height="400px">
<g id="surface1">
<path style=" fill:#673AB7;" d="M 23.269531 11.269531 C 23.59375 10.664063 24.15625 9.859375 24.515625 9.460938 C 24.878906 9.058594 25.160156 8.695313 25.199219 8.535156 C 25.238281 8.371094 25.121094 7.808594 25.121094 7.808594 C 25.121094 7.808594 24.4375 8.171875 24.195313 8.050781 C 24.039063 7.972656 23.878906 7.335938 23.710938 7.101563 C 23.679688 7.058594 23.710938 6.882813 23.710938 6.882813 C 23.710938 6.882813 23.53125 6.667969 23.566406 6.761719 L 23.660156 6.28125 L 23.34375 6.195313 C 23.34375 6.195313 23.511719 5.4375 23.511719 5.316406 C 23.511719 5.195313 23.148438 4.835938 23.148438 4.835938 C 23.148438 4.835938 23.230469 4.433594 23.269531 4.273438 C 23.3125 4.109375 23.269531 3.429688 23.269531 3.429688 L 23.230469 2.703125 C 23.230469 2.703125 24.71875 1.617188 25.925781 1.617188 C 27.132813 1.617188 27.976563 2.664063 27.976563 3.386719 C 27.976563 4.128906 27.636719 5.160156 27.636719 5.761719 C 27.636719 6.359375 27.636719 6.640625 27.636719 6.640625 L 28.328125 7.28125 C 28.328125 7.28125 28.96875 7.394531 29.457031 7.394531 C 29.945313 7.394531 30.339844 7.167969 30.957031 7.167969 C 31.574219 7.167969 32.421875 7.300781 33.394531 7.582031 C 34.371094 7.863281 36.230469 8.21875 36.230469 8.21875 C 36.230469 8.21875 35.761719 6.753906 35.515625 6.15625 C 35.273438 5.554688 35.085938 4.636719 35.085938 4.636719 L 34.914063 4.429688 C 34.914063 4.429688 34.464844 3.753906 34.332031 3.753906 C 34.203125 3.753906 33.996094 3.792969 33.921875 3.679688 C 33.84375 3.566406 33.921875 3.359375 33.921875 2.984375 C 33.921875 2.609375 34.089844 2.160156 34.40625 1.820313 C 34.726563 1.484375 34.933594 1.523438 35.066406 1.484375 C 35.195313 1.445313 35.179688 1.128906 35.421875 1.128906 C 35.664063 1.128906 35.722656 1.558594 35.945313 1.710938 C 36.171875 1.859375 36.304688 1.898438 36.359375 2.347656 C 36.414063 2.796875 36.339844 3.734375 36.433594 3.847656 C 36.527344 3.960938 37.5625 5.480469 37.992188 6.175781 C 38.425781 6.867188 38.742188 7.414063 38.949219 7.863281 C 39.15625 8.3125 39.191406 8.578125 39.304688 8.78125 C 39.417969 8.988281 39.585938 9.308594 39.585938 9.589844 C 39.585938 9.871094 38.78125 10.398438 38.21875 10.621094 C 37.652344 10.847656 36.867188 10.980469 36.285156 11.183594 C 35.703125 11.390625 34.953125 11.710938 34.464844 11.84375 C 33.976563 11.972656 33.355469 12.066406 33.355469 12.066406 C 33.355469 12.066406 33.320313 15.40625 33.507813 17.039063 C 33.695313 18.671875 34.0625 29.5625 34.0625 30.5625 C 34.0625 31.5625 34.125 33.9375 34.125 34.9375 C 34.125 35.9375 34.0625 36.625 34.0625 37 C 34.0625 37.375 34.207031 37.855469 34.25 38.144531 C 34.292969 38.4375 34.25 39.207031 34.3125 39.707031 C 34.375 40.207031 34.4375 40.539063 34.769531 40.914063 C 35.101563 41.289063 35.25 41.394531 35.6875 41.644531 C 36.125 41.894531 36.289063 42.039063 36.414063 42.164063 C 36.539063 42.289063 36.894531 42.75 36.894531 42.75 L 35.6875 44.332031 L 35.269531 44.019531 C 35.269531 44.019531 34.875 44.457031 34.832031 44.625 C 34.789063 44.789063 34.351563 46.019531 34.125 46.3125 C 33.894531 46.605469 30.832031 46.980469 30.832031 46.980469 C 30.832031 46.980469 30.75 46.5625 31.0625 46.269531 C 31.375 45.980469 31.894531 45.855469 32.1875 45.5625 C 32.476563 45.269531 32.8125 44.917969 32.851563 44.730469 C 32.894531 44.542969 32.457031 44.835938 32.457031 44.835938 C 32.457031 44.835938 32.144531 44.5625 32.082031 44.167969 C 32.019531 43.769531 31.707031 43.5 31.457031 43.125 C 31.207031 42.75 30.8125 42.125 30.75 41.417969 C 30.6875 40.710938 30.789063 40.292969 30.707031 39.6875 C 30.625 39.085938 30.25 37.335938 30.019531 36.792969 C 29.789063 36.25 29.496094 35.769531 29.476563 35.394531 C 29.457031 35.019531 29.644531 34.417969 29.644531 34 C 29.644531 33.582031 29.332031 32.9375 29.332031 32.375 C 29.332031 31.8125 29.601563 30.4375 29.601563 29.957031 C 29.601563 29.480469 29.332031 27.269531 29.332031 27.269531 L 26.019531 33.019531 L 18.832031 44.289063 L 17.644531 43.4375 L 17.5 44.417969 L 15.625 44.355469 L 15.582031 43.523438 C 15.582031 43.523438 14.644531 44.085938 13.980469 44.0625 C 13.3125 44.042969 11.019531 43.855469 11.019531 43.855469 C 11.019531 43.855469 10.9375 43.753906 10.960938 43.585938 C 10.980469 43.417969 11.355469 43.355469 11.855469 43.167969 C 12.355469 42.980469 13 42.875 13.25 42.667969 C 13.5 42.460938 13.960938 41.730469 14.1875 41.5625 C 14.417969 41.398438 14.773438 41.398438 14.980469 41.125 C 15.1875 40.855469 16.023438 39.9375 16.230469 39.605469 C 16.4375 39.273438 16.667969 38.980469 16.835938 38.917969 C 17.003906 38.855469 17.542969 38.8125 17.585938 38.730469 C 17.628906 38.644531 17.542969 38.3125 17.730469 38.019531 C 17.917969 37.730469 18.230469 37.3125 18.417969 37.019531 C 18.605469 36.730469 18.816406 36.5 18.773438 36.292969 C 18.730469 36.085938 18.792969 35.792969 19.042969 35.4375 C 19.292969 35.085938 24.167969 26.710938 24.667969 24.75 C 25.167969 22.789063 23.269531 11.269531 23.269531 11.269531 Z "></path>
<path style=" fill:#E65100;" d="M 8.933594 44.492188 C 8.648438 44.492188 8.433594 44.421875 8.289063 44.082031 C 8.144531 43.742188 7.734375 43.078125 7.734375 43.078125 L 7.105469 43.453125 L 6.890625 43.148438 C 6.890625 43.148438 7.429688 42.847656 7.5 42.683594 C 7.574219 42.523438 7.535156 42.289063 7.839844 42.183594 C 8.144531 42.078125 8.574219 41.863281 8.699219 41.664063 C 8.824219 41.46875 8.914063 41.183594 9.253906 40.984375 C 9.59375 40.789063 9.828125 40.769531 10.203125 40.449219 C 10.578125 40.125 11.226563 39.265625 11.421875 38.820313 C 11.617188 38.371094 13.496094 34.824219 14.320313 34.109375 C 15.144531 33.394531 17.203125 31.800781 17.542969 31.351563 C 17.886719 30.90625 21.039063 26.835938 21.539063 25.835938 C 22.039063 24.835938 22.914063 20.5 23.039063 19.792969 C 23.164063 19.085938 21.046875 16.71875 20.890625 16.519531 C 20.738281 16.316406 19.832031 14.753906 19.644531 14.492188 C 19.457031 14.234375 18.855469 13.234375 18.855469 12.71875 C 18.855469 12.199219 19.515625 11.070313 19.492188 10.566406 C 19.46875 10.058594 19.492188 9.492188 19.386719 9.234375 C 19.28125 8.976563 18.855469 8.355469 18.738281 8.269531 C 18.621094 8.1875 17.773438 8.296875 17.480469 7.964844 C 17.1875 7.636719 17.175781 6.824219 17.175781 6.222656 C 17.175781 5.625 17.363281 4.410156 18.222656 4.035156 C 19.078125 3.660156 19.234375 3.871094 19.515625 3.707031 C 19.796875 3.542969 20.066406 3.378906 20.527344 3.378906 C 20.984375 3.378906 21.140625 3.648438 21.28125 3.753906 C 21.421875 3.859375 22.140625 4.613281 22.257813 4.707031 C 22.371094 4.800781 22.457031 5.023438 22.457031 5.023438 C 22.457031 5.023438 22.339844 5.285156 22.375 5.332031 C 22.410156 5.375 23.105469 6 23.152344 6.058594 C 23.199219 6.117188 22.953125 6.363281 22.953125 6.363281 L 23.035156 6.683594 L 23.164063 6.789063 L 23.117188 6.964844 L 23.1875 7.140625 C 23.1875 7.140625 23.058594 7.328125 23.09375 7.410156 C 23.128906 7.492188 23.257813 7.671875 23.292969 7.847656 C 23.328125 8.023438 23.1875 8.257813 23 8.304688 C 22.8125 8.351563 21.8125 8.199219 21.8125 8.824219 C 21.8125 9.449219 22.070313 10.128906 22.351563 10.128906 C 22.636719 10.128906 23.8125 9.566406 24.636719 9.566406 C 25.457031 9.566406 26.574219 9.71875 26.941406 9.71875 C 27.304688 9.71875 28.621094 9.316406 28.941406 9.140625 C 29.257813 8.964844 29.589844 8.847656 29.589844 8.847656 C 29.589844 8.847656 31.515625 7.328125 31.789063 7.046875 C 32.058594 6.765625 33.847656 5.046875 33.964844 4.90625 C 34.082031 4.765625 34.1875 4.484375 34.246094 4.355469 C 34.304688 4.226563 34.28125 3.566406 34.386719 3.554688 C 34.492188 3.542969 34.785156 3.683594 34.867188 3.953125 C 34.953125 4.222656 35 4.671875 34.894531 4.917969 C 34.789063 5.164063 34.222656 6.363281 33.976563 6.765625 C 33.730469 7.164063 33.351563 7.847656 33.117188 8.164063 C 32.882813 8.484375 32.210938 9.175781 31.964844 9.445313 C 31.71875 9.71875 31.492188 10.011719 31.433594 10.035156 C 31.375 10.058594 30.953125 10.328125 30.648438 10.46875 C 30.339844 10.609375 28.527344 11.328125 28.152344 11.503906 C 27.777344 11.679688 26.589844 11.929688 26.339844 11.988281 C 26.09375 12.046875 25.8125 12.292969 25.8125 12.292969 C 25.8125 12.292969 26.976563 17.679688 27.070313 17.988281 C 27.164063 18.292969 28.199219 19.351563 28.269531 19.363281 C 28.34375 19.375 29.128906 18.820313 30.425781 18.257813 C 31.71875 17.691406 34.859375 16.445313 35.484375 16.445313 C 36.105469 16.445313 37.164063 16.964844 37.164063 17.820313 C 37.164063 18.679688 36.164063 22.09375 36.164063 22.09375 C 36.164063 22.09375 35.363281 24.539063 35.257813 25.140625 C 35.152344 25.738281 35.070313 26.164063 35.035156 26.609375 C 35 27.058594 34.847656 28.964844 34.800781 29.492188 C 34.753906 30.023438 34.601563 30.871094 34.433594 31.199219 C 34.269531 31.527344 34 32.023438 34 32.460938 C 34 32.894531 34.058594 33.257813 34.222656 33.410156 C 34.390625 33.566406 34.589844 33.777344 34.589844 34.011719 C 34.589844 34.246094 34.472656 34.445313 34.28125 34.445313 C 34.09375 34.445313 33.835938 34.292969 33.484375 33.929688 C 33.128906 33.5625 32.542969 32.847656 32.496094 32.539063 C 32.449219 32.234375 32.296875 30.648438 32.296875 30.648438 L 31.625 31.695313 L 31.257813 31.375 C 31.257813 31.375 31.765625 30.457031 31.871094 30.234375 C 31.976563 30.011719 31.917969 29.8125 32.082031 29.515625 C 32.246094 29.222656 32.90625 28.5625 33.082031 28.070313 C 33.257813 27.574219 33.542969 26.683594 33.601563 26.375 C 33.660156 26.070313 33.519531 23.316406 33.578125 22.765625 C 33.636719 22.210938 33.671875 20.71875 33.671875 20.71875 C 33.671875 20.71875 32.023438 22.28125 31.046875 23 C 30.070313 23.71875 28.058594 24.671875 28.058594 24.671875 L 24.40625 27.5 C 24.40625 27.5 22.71875 29.65625 22.09375 30.40625 C 21.46875 31.15625 20.6875 31.875 20.46875 32.21875 C 20.25 32.5625 19.5 33.46875 19.03125 33.90625 C 18.5625 34.34375 17.4375 35.25 17.171875 35.546875 C 16.90625 35.84375 16.546875 36.359375 16.109375 36.71875 C 15.671875 37.078125 13.3125 38.828125 12.84375 39.390625 C 12.375 39.953125 11.984375 41.015625 11.65625 41.40625 C 11.328125 41.796875 10.890625 42.34375 10.5625 42.6875 C 10.234375 43.03125 9.53125 43.484375 9.515625 43.6875 C 9.5 43.890625 9.546875 44.03125 9.546875 44.171875 C 9.546875 44.3125 9.304688 44.492188 8.933594 44.492188 Z "></path>
<path style=" fill:#FFA726;" d="M 16.355469 32.867188 C 16.1875 32.867188 15.886719 32.808594 15.886719 32.808594 C 15.886719 32.808594 17.121094 31.671875 17.253906 31.453125 C 17.382813 31.234375 18.371094 29.898438 18.46875 29.609375 C 18.570313 29.320313 19.15625 28.410156 19.476563 27.863281 C 19.796875 27.316406 20.402344 26.226563 20.492188 26.109375 C 20.582031 25.988281 20.621094 25.828125 20.652344 25.570313 C 20.683594 25.3125 20.503906 24.800781 20.511719 24.484375 C 20.523438 24.164063 20.792969 23.078125 20.902344 22.738281 C 21.011719 22.398438 21.109375 22.367188 21.140625 22.238281 C 21.171875 22.109375 21.101563 21.921875 21.210938 21.710938 C 21.320313 21.503906 21.640625 21.242188 21.71875 21.09375 C 21.800781 20.941406 21.789063 20.773438 21.871094 20.703125 C 21.949219 20.632813 22.078125 20.574219 22.109375 20.433594 C 22.140625 20.296875 22.398438 19.808594 22.40625 19.46875 C 22.417969 19.128906 22.007813 18.261719 22.007813 18.261719 C 22.007813 18.261719 22.597656 15.570313 22.984375 15.140625 C 23.375 14.710938 24.101563 14.113281 24.242188 13.84375 C 24.382813 13.574219 24.5625 13.1875 24.601563 12.988281 C 24.640625 12.789063 24.878906 12.199219 25.210938 12.199219 C 25.539063 12.199219 25.898438 12.128906 26.347656 12.558594 C 26.796875 12.988281 27.234375 13.425781 27.28125 13.695313 C 27.332031 13.964844 27.191406 14.84375 27.203125 15.183594 C 27.214844 15.519531 27.304688 16.1875 27.34375 16.4375 C 27.382813 16.6875 27.402344 16.9375 27.464844 17.125 C 27.523438 17.316406 27.542969 17.664063 27.621094 17.882813 C 27.703125 18.101563 27.84375 18.203125 27.863281 18.351563 C 27.882813 18.503906 27.960938 18.570313 28.132813 18.753906 C 28.300781 18.933594 28.339844 19.261719 28.339844 19.261719 C 28.339844 19.261719 28.320313 24.054688 28.378906 24.324219 C 28.441406 24.59375 28.449219 24.832031 28.628906 25.132813 C 28.808594 25.433594 29.128906 25.75 29.128906 26.25 C 29.128906 26.75 29.050781 28.019531 28.492188 29.28125 C 28.332031 29.644531 27.832031 30.597656 27.632813 30.597656 C 27.5 30.589844 27.035156 30.378906 26.664063 29.988281 C 26.296875 29.601563 26.234375 29.421875 26.15625 29.410156 C 26.078125 29.402344 25.816406 29.441406 25.6875 29.300781 C 25.558594 29.160156 25.1875 28.464844 24.949219 28.464844 C 24.710938 28.464844 24.28125 29.488281 24.160156 29.828125 C 24.042969 30.167969 21.996094 34.914063 21.910156 35.171875 C 21.820313 35.433594 21.558594 36.101563 21.359375 36.101563 C 21.160156 36.101563 20.601563 35.03125 20.375 34.941406 C 20.144531 34.851563 19.417969 34.992188 19.179688 34.992188 C 18.9375 34.992188 18.175781 34.652344 18.175781 34.652344 C 18.175781 34.652344 19.367188 33.558594 19.46875 33.386719 C 19.566406 33.21875 20.753906 31.78125 20.863281 31.636719 C 21.007813 31.449219 22.210938 30.160156 22.3125 30.03125 C 22.410156 29.902344 24.09375 27.882813 24.132813 27.832031 C 24.171875 27.78125 24.03125 27.574219 23.882813 27.445313 C 23.734375 27.316406 23.234375 26.917969 23.136719 26.929688 C 23.035156 26.9375 22.4375 27.386719 22.328125 27.507813 C 22.21875 27.625 21.601563 28.472656 21.25 28.863281 C 20.902344 29.25 19.246094 30.605469 18.859375 30.925781 C 18.46875 31.242188 17.242188 32.867188 16.355469 32.867188 Z "></path>
<path style=" fill:#673AB7;" d="M 25.113281 14.792969 C 24.867188 15.015625 23.96875 15.515625 23.6875 15.863281 C 23.410156 16.214844 22.988281 16.496094 22.941406 16.683594 C 22.894531 16.867188 22.59375 19.761719 20.84375 19.761719 C 19.769531 19.761719 19.417969 18.664063 19.417969 18.128906 C 19.417969 17.589844 19.90625 16.84375 20.210938 16.539063 C 20.515625 16.238281 21.003906 16.003906 21.121094 15.769531 C 21.238281 15.539063 21.050781 14.722656 20.980469 14.417969 C 20.910156 14.113281 20.957031 13.835938 20.910156 13.671875 C 20.863281 13.507813 20.492188 13.226563 20.515625 13.0625 C 20.535156 12.898438 20.652344 12.875 20.933594 12.875 C 21.214844 12.875 21.402344 13.273438 21.472656 13.507813 C 21.539063 13.738281 21.425781 14.113281 21.75 14.113281 C 22.078125 14.113281 23.058594 13.832031 23.359375 13.644531 C 23.664063 13.460938 24.199219 13.296875 24.410156 13.226563 C 24.621094 13.15625 24.785156 13.273438 24.785156 13.273438 L 24.832031 13.554688 C 24.832031 13.554688 24.992188 13.414063 25.15625 13.53125 C 25.320313 13.648438 25.25 13.902344 25.25 13.902344 C 25.25 13.902344 25.390625 13.925781 25.460938 14.019531 C 25.53125 14.113281 25.296875 14.417969 25.296875 14.417969 C 25.296875 14.417969 25.371094 14.558594 25.113281 14.792969 Z "></path>
</g>
</svg>