<svg xmlns="http://www.w3.org/2000/svg" xmlns:xlink="http://www.w3.org/1999/xlink" version="1.1" id="Layer_1" x="0px" y="0px" viewBox="0 0 48 48" style="enable-background:new 0 0 48 48;" xml:space="preserve" width="400px" height="400px">
<path style="fill:#4E342E;" d="M26.135,19.865c-2.997-2.997-6.261-4.851-8.26-4.865c-0.587-0.004-1.065,0.15-1.395,0.48  c-1.455,1.455,0.508,5.778,4.385,9.655c3.877,3.877,8.199,5.84,9.655,4.385C31.975,28.065,30.012,23.742,26.135,19.865z"></path>
<polygon style="fill:#FBC02D;" points="35.5,28 34.5,29 34,29.5 34.64,30.14 35.5,31 36.5,30 37,29.5 36.25,28.75 "></polygon>
<polygon style="fill:#1976D2;" points="16.5,39 15.5,40 15,40.5 15.702,41.202 16.5,42 17.375,41.125 18,40.5 17.501,40 "></polygon>
<polygon style="fill:#FBC02D;" points="13.5,6 12.474,7.026 12,7.5 12.422,7.922 13.5,9 14.268,8.232 15,7.5 14.171,6.671 "></polygon>
<polygon style="fill:#1976D2;" points="24.5,6 23.279,7.221 23,7.5 23.386,7.886 24.5,9 26,7.5 "></polygon>
<polygon style="fill:#FF8F00;" points="26.5,12 25.526,12.974 25,13.5 25.68,14.18 26.5,15 27.374,14.126 28,13.5 27.311,12.811 "></polygon>
<polygon style="fill:#F50057;" points="40.5,17 39.828,17.672 39,18.5 39.563,19.063 40.5,20 41.422,19.078 42,18.5 41.42,17.92 "></polygon>
<polygon style="fill:#1976D2;" points="7.5,24 6.469,25.031 6,25.5 6.563,26.063 7.5,27 8.469,26.031 9,25.5 8.454,24.954 "></polygon>
<polygon style="fill:#FF8F00;" points="40,31 38.719,32.281 38,33 38.672,33.672 40,35 41.406,33.594 42,33 41.516,32.516 "></polygon>
<polygon style="fill:#F50057;" points="24,35 22.625,36.375 22,37 22.531,37.531 24,39 25.375,37.625 26,37 25.531,36.531 "></polygon>
<path style="fill:#F50057;" d="M20,20L20,20c0.086-0.077,1-3,1-6c0-1.269-0.344-2.251-1.023-2.92  c-1.108-1.091-2.803-1.074-2.831-1.08H17V8h0.125c0.075,0.002,2.509-0.047,4.236,1.637C22.449,10.697,23,12.165,23,14  C23,18,20,20,20,20z"></path>
<path style="fill:#F50057;" d="M42,42h-2v-0.125C39.953,40.437,39.458,39,39.125,39c-0.729,0-1.446,0.878-2.022,1.584  C36.483,41.344,35.948,42,35.125,42c-1.378,0-1.684-1.636-1.98-3.217c-0.05-0.267-0.114-0.61-0.187-0.936  c-0.051,0.104-0.102,0.205-0.148,0.3C31.875,40.042,30.908,42,29.375,42C28.193,42,27,41.072,27,39h2c0,0.589,0.154,1,0.375,1  c0.383-0.188,1.265-1.975,1.642-2.738C31.737,35.803,32.133,35,33,35c1.472,0,1.796,1.736,2.111,3.415  c0.062,0.329,0.146,0.783,0.238,1.155c0.071-0.085,0.141-0.171,0.205-0.25c0.799-0.979,1.893-2.32,3.571-2.32  c2.596,0,2.85,4.036,2.875,4.845L42,42z"></path>
<path style="fill:#FFB300;" d="M20.865,25.135c-3.488-3.488-5.418-7.329-4.712-9.126L16.145,16L6,40l24-10.145l-0.007-0.009  C28.197,30.553,24.354,28.624,20.865,25.135z"></path>
<path style="fill:#FFE57F;" d="M17.308,20.614L6,40l13.757-16.05C18.759,22.821,17.93,21.684,17.308,20.614z"></path>
<path style="fill:#FF8F00;" d="M41,6.001c-2.017,0.033-3.418,0.468-4.233,1.277c-0.463,0.459-0.725,1.039-0.762,1.684  C36.004,8.974,36,9.04,36,9.06c0.018,1.248,0.63,2.329,0.845,2.69c0.04,0.068,0.11,0.206,0.125,0.256  c-0.537-0.025-1.507-0.224-2.115-0.354c-1.789-0.381-3.331-0.711-4.253,0.033C30.214,12,30,12.466,30,13  c0,1.153,0.746,2.169,1.345,2.986C31.593,16.324,31.968,16.834,32,17c0,0.519-0.363,0.714-2.282,1.234C27.562,18.818,24,20,22,23  c3-2,6.102-2.256,8.24-2.835C32.089,19.665,34,19.147,34,17c0-0.777-0.506-1.467-1.043-2.198c-0.363-0.495-0.801-1.092-0.924-1.567  c0.551-0.016,1.683,0.219,2.404,0.373c0.98,0.209,1.881,0.387,2.603,0.39V14c0.856,0,1.455-0.441,1.707-0.82l0.097-0.184  C38.958,12.712,39,12.433,39,12.175c0-0.699-0.312-1.247-0.378-1.355c-0.143-0.215-0.57-0.962-0.611-1.698  c-0.001-0.016-0.001-0.067,0-0.076c0.014-0.137,0.06-0.246,0.165-0.349C38.345,8.529,39.074,7.986,41.5,8H42V6  C42,6,41.141,5.998,41,6.001z"></path>
<path style="fill:#1976D2;" d="M40,28h2c0-0.172-0.01-0.339-0.028-0.5C41.565,23.963,36.842,23,34,23c-6,0-9,3-9,3s3-1,9-1  C34.06,25,40,25.082,40,28z"></path>
<path style="fill:#FF8F00;" d="M10.625,15c-2.296,0-2.6-0.354-2.61-0.366c0,0-0.015-0.035-0.037-0.038  c0.117-0.194,0.796-0.517,1.161-0.69c0.758-0.36,1.603-0.763,1.812-1.531C10.983,12.259,11,12.134,11,12  c0-0.133-0.012-0.257-0.034-0.375c-0.186-0.981-1.093-1.455-1.775-1.812C8.283,9.338,8,9.112,8,8.625C8,8.045,8.839,8.002,9.008,8H9  V6C7.794,6,6,6.699,6,8.625c0,1.776,1.417,2.517,2.264,2.96c0.155,0.082,0.356,0.187,0.51,0.273  c-0.162,0.084-0.347,0.172-0.495,0.243C7.318,12.558,6,13.185,6,14.5C6,17,9.009,17,10.625,17c0.068,0,0.129,0.003,0.183,0.008  c-0.43,0.465-1.584,1.275-3.768,2.05l0.669,1.885C9.3,20.378,13,18.84,13,16.75C13,15.907,12.257,15,10.625,15z"></path>
</svg>